<svg xmlns="http://www.w3.org/2000/svg" xmlns:xlink="http://www.w3.org/1999/xlink" version="1.1" x="0px" y="0px" viewBox="0 0 100 125" enable-background="new 0 0 100 100" xml:space="preserve"><path fill="#000000" d="M50.537,5h-8.186c-0.798,0-1.456,0.743-1.456,1.651c0,0,0.662,4.939,0.662,12.361  c0,7.423-0.662,12.36-0.662,12.36c0,0.907,0.658,1.649,1.456,1.649h8.186c0.798,0,1.454-0.742,1.454-1.649  c0,0-0.532-5.834-0.532-12.36c0-6.529,0.532-12.361,0.532-12.361C51.991,5.743,51.335,5,50.537,5z M50.537,35.989h-8.186  c-0.798,0-1.456,0.744-1.456,1.649c0,0,0.662,4.939,0.662,12.362c0,7.422-0.662,12.359-0.662,12.359  c0,0.908,0.658,1.649,1.456,1.649h8.186c0.798,0,1.454-0.741,1.454-1.649c0,0-0.532-5.832-0.532-12.359  c0-6.53,0.532-12.362,0.532-12.362C51.991,36.733,51.335,35.989,50.537,35.989z M50.537,66.978h-8.186  c-0.798,0-1.456,0.743-1.456,1.649c0,0,0.662,4.941,0.662,12.361c0,7.423-0.662,12.361-0.662,12.361c0,0.906,0.658,1.65,1.456,1.65  h8.186c0.798,0,1.454-0.744,1.454-1.65c0,0-0.532-5.831-0.532-12.361c0-6.527,0.532-12.361,0.532-12.361  C51.991,67.721,51.335,66.978,50.537,66.978z M66.928,38.567H59.1c-0.764,0-1.39,0.712-1.39,1.58c0,0,0.633,4.725,0.633,11.82  S57.71,63.786,57.71,63.786c0,0.87,0.626,1.58,1.39,1.58h7.828c0.765,0,1.391-0.71,1.391-1.58c0,0-0.507-5.574-0.507-11.818  s0.507-11.82,0.507-11.82C68.318,39.279,67.692,38.567,66.928,38.567z M66.928,68.203H59.1c-0.764,0-1.39,0.71-1.39,1.577  c0,0,0.633,4.723,0.633,11.821c0,7.098-0.633,11.82-0.633,11.82c0,0.87,0.626,1.578,1.39,1.578h7.828  c0.765,0,1.391-0.708,1.391-1.578c0,0-0.507-5.576-0.507-11.82c0-6.242,0.507-11.821,0.507-11.821  C68.318,68.913,67.692,68.203,66.928,68.203z M76.879,45.963c-2.461,4.924-10.291,13.646-7.159,22.24  C77.325,62.033,74.866,56.03,76.879,45.963z M93.116,62.357c-5.462,0.672-17.06-1.022-22.483,6.339  C79.978,71.617,83.616,66.252,93.116,62.357z M70.723,69.73c2.738,9.401,9.223,9.462,17.723,15.224  C84.86,80.772,79.855,70.177,70.723,69.73z M37.75,33.042c3.537-9.707-5.309-19.562-8.09-25.126  C31.934,19.288,29.156,26.07,37.75,33.042z M36.716,33.614C29.703,23.61,14.16,25.503,6.884,24.43  C19.451,29.929,24.135,37.218,36.716,33.614z M24.297,45.963c6.275-4.25,11.064-4.297,13.085-11.237  C30.638,35.055,26.943,42.881,24.297,45.963z"/><text x="0" y="115" fill="#000000" font-size="5px" font-weight="bold" font-family="'Helvetica Neue', Helvetica, Arial-Unicode, Arial, Sans-serif">Created by Clockwise</text><text x="0" y="120" fill="#000000" font-size="5px" font-weight="bold" font-family="'Helvetica Neue', Helvetica, Arial-Unicode, Arial, Sans-serif">from the Noun Project</text></svg>