<?xml version="1.0" encoding="utf-8"?>
<!-- Generator: Adobe Illustrator 16.0.0, SVG Export Plug-In . SVG Version: 6.00 Build 0)  -->
<!DOCTYPE svg PUBLIC "-//W3C//DTD SVG 1.1//EN" "http://www.w3.org/Graphics/SVG/1.1/DTD/svg11.dtd">
<svg version="1.1" id="Layer_1" xmlns="http://www.w3.org/2000/svg" xmlns:xlink="http://www.w3.org/1999/xlink" x="0px" y="0px"
	 width="1190.549px" height="841.891px" viewBox="0 0 1190.549 841.891" enable-background="new 0 0 1190.549 841.891"
	 xml:space="preserve">
<line fill="#FFFFFF" stroke="#2A0000" stroke-width="20" stroke-linecap="round" stroke-miterlimit="10" x1="606.296" y1="420.945" x2="777.062" y2="591.711"/>
<circle fill="#FFFFFF" stroke="#2A0000" stroke-width="5" stroke-miterlimit="10" cx="606.296" cy="420.946" r="148.5"/>
<path d="M607.706,302.813h-21.489c-2.095,0-3.823,1.951-3.823,4.335c0,0,1.738,12.966,1.738,32.449
	c0,19.487-1.738,32.447-1.738,32.447c0,2.381,1.728,4.329,3.823,4.329h21.489c2.095,0,3.816-1.948,3.816-4.329
	c0,0-1.396-15.315-1.396-32.447c0-17.14,1.396-32.449,1.396-32.449C611.523,304.765,609.801,302.813,607.706,302.813z
	 M607.706,384.165h-21.489c-2.095,0-3.823,1.953-3.823,4.329c0,0,1.738,12.966,1.738,32.452c0,19.485-1.738,32.445-1.738,32.445
	c0,2.384,1.728,4.329,3.823,4.329h21.489c2.095,0,3.816-1.945,3.816-4.329c0,0-1.396-15.311-1.396-32.445
	c0-17.142,1.396-32.452,1.396-32.452C611.523,386.118,609.801,384.165,607.706,384.165z M607.706,465.517h-21.489
	c-2.095,0-3.823,1.951-3.823,4.329c0,0,1.738,12.971,1.738,32.45c0,19.486-1.738,32.45-1.738,32.45c0,2.378,1.728,4.331,3.823,4.331
	h21.489c2.095,0,3.816-1.953,3.816-4.331c0,0-1.396-15.308-1.396-32.45c0-17.135,1.396-32.45,1.396-32.45
	C611.523,467.468,609.801,465.517,607.706,465.517z M650.736,390.934h-20.55c-2.005,0-3.649,1.869-3.649,4.147
	c0,0,1.662,12.404,1.662,31.029c0,18.626-1.662,31.027-1.662,31.027c0,2.283,1.645,4.147,3.649,4.147h20.55
	c2.008,0,3.652-1.864,3.652-4.147c0,0-1.332-14.633-1.332-31.024s1.332-31.03,1.332-31.03
	C654.385,392.803,652.741,390.934,650.736,390.934z M650.736,468.732h-20.55c-2.005,0-3.649,1.864-3.649,4.14
	c0,0,1.662,12.399,1.662,31.033c0,18.633-1.662,31.029-1.662,31.029c0,2.284,1.645,4.143,3.649,4.143h20.55
	c2.008,0,3.652-1.858,3.652-4.143c0,0-1.332-14.638-1.332-31.029c0-16.387,1.332-31.033,1.332-31.033
	C654.385,470.597,652.741,468.732,650.736,468.732z M676.859,410.349c-6.46,12.927-27.016,35.823-18.793,58.384
	C678.03,452.535,671.574,436.776,676.859,410.349z M719.484,453.387c-14.339,1.764-44.785-2.684-59.021,16.64
	C684.993,477.695,694.544,463.61,719.484,453.387z M660.698,472.741c7.188,24.68,24.211,24.84,46.525,39.966
	C697.81,501.729,684.671,473.915,660.698,472.741z M574.138,376.43c9.285-25.483-13.937-51.354-21.238-65.961
	C558.87,340.323,551.577,358.127,574.138,376.43z M571.424,377.931c-18.41-26.262-59.213-21.293-78.314-24.109
	C526.1,368.257,538.396,387.392,571.424,377.931z M538.822,410.349c16.473-11.157,29.045-11.28,34.35-29.499
	C555.468,381.714,545.768,402.259,538.822,410.349z"/>
<text transform="matrix(1 0 0 1 258.5178 792.5391)" font-family="'Arial-BoldMT'" font-size="14">Bamboo Created by Clockwise</text>
<text transform="matrix(1 0 0 1 258.5178 808.2148)" font-family="'Arial-BoldMT'" font-size="14">from the Noun Project</text>
<polygon fill="none" stroke="#2A0000" stroke-width="5" stroke-linejoin="round" stroke-miterlimit="10" points="435.035,717.579 
	263.775,420.944 435.035,124.312 777.558,124.312 948.819,420.944 777.558,717.579 "/>
</svg>
